<svg width="56" height="64" viewBox="0 0 56 64" fill="none" xmlns="http://www.w3.org/2000/svg">
<g clip-path="url(#clip0_20_14)">
<path d="M18.6123 12.1936L49.9017 33.9345C51.6723 35.1648 51.6058 37.8054 49.7755 38.9449L43.2515 43.0068C41.8542 43.8768 41.4188 45.7101 42.2757 47.1154L47.1792 55.1571C48.0125 56.5236 47.6263 58.3035 46.3017 59.2018L43.6203 61.0203C42.2263 61.9657 40.3275 61.5785 39.4149 60.1629L34.3527 52.3104C33.4247 50.8708 31.4817 50.4991 30.0878 51.4946L25.5938 54.7039C23.8069 55.98 21.2994 54.967 20.9003 52.8077L13.9505 15.2025C13.4635 12.5677 16.412 10.6647 18.6123 12.1936Z" fill="#D9D9D9" stroke="black" stroke-width="2"/>
</g>
<defs>
<clipPath id="clip0_20_14">
<rect width="56" height="64" fill="white"/>
</clipPath>
</defs>
</svg>
