<svg width="62" height="66" viewBox="0 0 62 66" fill="none" xmlns="http://www.w3.org/2000/svg">
<path d="M40.9286 51.3952C39.3572 49.4849 39.6319 46.6623 41.5422 45.0908L41.9266 44.7746C43.8369 43.2032 46.6595 43.4779 48.231 45.3882L57.3996 56.534C58.9711 58.4443 58.6964 61.2669 56.786 62.8384L56.4017 63.1546C54.4913 64.726 51.6687 64.4513 50.0972 62.541L40.9286 51.3952Z" fill="#373737"/>
<path d="M15.4214 16.905C14.6522 14.3779 17.3596 12.1507 19.691 13.3929L59.1198 34.4005C60.9695 35.3861 61.2006 37.9413 59.562 39.2893L33.1436 61.0213C31.505 62.3693 29.0422 61.6498 28.4319 59.6447L15.4214 16.905Z" fill="#373737"/>
<path d="M41.3873 49.686C39.8549 47.8231 40.1228 45.0707 41.9856 43.5382L42.3604 43.2299C44.2233 41.6975 46.9757 41.9654 48.5082 43.8283L57.4489 54.697C58.9813 56.5598 58.7134 59.3123 56.8505 60.8447L56.4757 61.153C54.6128 62.6854 51.8604 62.4175 50.328 60.5546L41.3873 49.686Z" fill="#D9D9D9"/>
<path d="M16.1071 15.5583C15.335 13.0674 17.9752 10.8956 20.2705 12.1335L59.0898 33.0695C60.9109 34.0516 61.1554 36.5665 59.5575 37.881L33.7957 59.0728C32.1978 60.3873 29.7773 59.6625 29.1647 57.6862L16.1071 15.5583Z" fill="#D9D9D9"/>
</svg>
