<svg width="61" height="66" viewBox="0 0 61 66" fill="none" xmlns="http://www.w3.org/2000/svg">
<path d="M40.0527 51.3952C38.4812 49.4849 38.756 46.6623 40.6663 45.0908L41.0507 44.7746C42.961 43.2032 45.7836 43.4779 47.3551 45.3882L56.5237 56.534C58.0952 58.4443 57.8205 61.2669 55.9101 62.8384L55.5258 63.1546C53.6154 64.726 50.7928 64.4513 49.2213 62.541L40.0527 51.3952Z" fill="#373737"/>
<path d="M14.5455 16.905C13.7762 14.3779 16.4837 12.1507 18.815 13.3929L58.2439 34.4005C60.0936 35.3861 60.3247 37.9413 58.6861 39.2893L32.2677 61.0213C30.629 62.3693 28.1663 61.6498 27.5559 59.6447L14.5455 16.905Z" fill="#373737"/>
<path d="M40.5114 49.686C38.979 47.8231 39.2469 45.0707 41.1097 43.5382L41.4845 43.2299C43.3474 41.6975 46.0998 41.9654 47.6322 43.8283L56.5729 54.697C58.1054 56.5598 57.8375 59.3123 55.9746 60.8447L55.5998 61.153C53.7369 62.6854 50.9845 62.4175 49.4521 60.5546L40.5114 49.686Z" fill="#D9D9D9"/>
<path d="M15.2312 15.5583C14.4591 13.0674 17.0993 10.8956 19.3946 12.1335L58.2139 33.0695C60.035 34.0516 60.2794 36.5665 58.6815 37.881L32.9198 59.0728C31.3219 60.3873 28.9014 59.6625 28.2888 57.6862L15.2312 15.5583Z" fill="#D9D9D9"/>
<path d="M18 10V3" stroke="#EAFF00" stroke-linecap="round"/>
<path d="M21 11L26 6" stroke="#EAFF00" stroke-linecap="round"/>
<path d="M14 11L9 6" stroke="#EAFF00" stroke-linecap="round"/>
<path d="M13 15L6 15" stroke="#EAFF00" stroke-linecap="round"/>
<path d="M14 17L9 22" stroke="#EAFF00" stroke-linecap="round"/>
</svg>
