<svg width="200" height="283" viewBox="0 0 200 283" fill="none" xmlns="http://www.w3.org/2000/svg">
<g clip-path="url(#clip0_38_2)">
<path d="M46 -16C43.3333 34.3333 39.6 136.6 46 143C49.751 146.751 54.2576 147.021 58.0504 146.065C62.4829 144.948 64.6988 140.423 65.022 135.863C68.4476 87.5281 72.4891 0.652107 64.5 -10" stroke="#060F13" stroke-width="6"/>
<path d="M65.3722 -35C62.0728 46.7553 57.4537 212.865 65.3722 223.26C71.0909 230.768 78.2293 229.691 83.3852 226.881C86.8318 225.003 88.386 221.125 88.6039 217.206C92.8972 139.999 98.3831 -7.53736 88.2615 -25.2543" stroke="#0C1E26" stroke-width="6"/>
<path d="M27.5 -6C38.5 42.5 46.4524 103.575 52.5 116C80 172.5 109.5 154 125.5 116C141.5 69.5 157.369 9.48279 148 -6" stroke="#0C2834" stroke-width="6"/>
<path d="M28.5 -13.5C39.5 35 45.9524 100.575 52 113C79.5 169.5 109 151 125 113C141 66.5 155.369 7.48279 146 -8" stroke="#262550" stroke-width="2"/>
</g>
<defs>
<clipPath id="clip0_38_2">
<rect width="200" height="283" fill="white"/>
</clipPath>
</defs>
</svg>
