<svg width="448" height="79" viewBox="0 0 448 79" fill="none" xmlns="http://www.w3.org/2000/svg">
<g clip-path="url(#clip0_50_155)">
<path d="M0 0H448V74C448 76.7614 445.761 79 443 79H5.00001C2.23858 79 0 76.7614 0 74V0Z" fill="white"/>
<rect x="74" width="301" height="23" rx="3" fill="#303030"/>
<rect x="74" y="5" width="301" height="13" fill="#101010"/>
<circle cx="59.5" cy="11.5" r="6.5" fill="#D9D9D9"/>
<circle cx="38.5" cy="11.5" r="6.5" fill="#D52D00"/>
<circle cx="37" cy="10" r="3" fill="#FF6036"/>
<circle cx="37.5" cy="9.5" r="2.5" fill="#FFA38B"/>
<ellipse cx="38.5" cy="11" rx="15.5" ry="13" fill="url(#paint0_radial_50_155)"/>
</g>
<defs>
<radialGradient id="paint0_radial_50_155" cx="0" cy="0" r="1" gradientUnits="userSpaceOnUse" gradientTransform="translate(38.5 11) rotate(90) scale(13 15.5)">
<stop stop-color="#FF0202" stop-opacity="0.6"/>
<stop offset="0.671" stop-color="#FF0202" stop-opacity="0.0804001"/>
<stop offset="1" stop-color="#FF0202" stop-opacity="0"/>
</radialGradient>
<clipPath id="clip0_50_155">
<path d="M0 0H448V74C448 76.7614 445.761 79 443 79H5.00001C2.23858 79 0 76.7614 0 74V0Z" fill="white"/>
</clipPath>
</defs>
</svg>
